<mxfile host="app.diagrams.net" modified="2023-10-30T16:15:34.192Z" agent="Mozilla/5.0 (Windows NT 10.0; Win64; x64) AppleWebKit/537.36 (KHTML, like Gecko) Chrome/118.0.0.0 Safari/537.36" version="22.0.8" etag="w5aRuOzc23r3SQFo9Jn9" type="github">
  <diagram name="Page-1" id="VEEVVyhrJ53FdmM3D3hw">
    <mxGraphModel>
      <root>
        <mxCell id="0" />
        <mxCell id="1" parent="0" />
      </root>
    </mxGraphModel>
  </diagram>
</mxfile>
